# xmcd
#
# Track frame offsets:
#	150
#	21700
#	47483
#	66086
#	86404
#	107492
#	130118
#	146303
#	164296
#	184244
#	207613
#	226895
#
# Disc length: 3301 seconds
#
# Revision: 0
# Processed by: cddbd v1.4PL0 Copyright (c) Steve Scherf et al.
# Submitted via: dBpowerAMP V4.0
#
DISCID=a20ce30c
DTITLE=Various Artist - Juke Joint Saturday Night Vol. 2
DYEAR=2003
DGENRE=Blues
TTITLE0=Lick It Before You Stick It - Denise Lasalle
TTITLE1=You Ain't The Only One I'm Giving Some - Chuck Roberson
TTITLE2=If I Can't Cut The Mustard - Bill Coday
TTITLE3=That Old Booty Green - Barbara Carr
TTITLE4=Blues Party Time - Lee Shot Williams
TTITLE5=You Ain't Cheatin' By The Rules - Chuck Roberson
TTITLE6=As Long As You Were Cheatin' - Barbara Carr
TTITLE7=Hoochie Dance - Bill Coday
TTITLE8=Down At The Place To Be - Ollie Nightingale
TTITLE9=You Can't Keep Your Pants Up And Your Zipper Shut - Dr. "Feelgood" Potts
TTITLE10=Cheatin' Fever - Lee Shot Williams
TTITLE11=A Woman Can Take It And She Can Dish It Out - Barbara Carr
EXTD=
EXTT0=
EXTT1=
EXTT2=
EXTT3=
EXTT4=
EXTT5=
EXTT6=
EXTT7=
EXTT8=
EXTT9=
EXTT10=
EXTT11=
PLAYORDER=
